<svg width="32" height="25" fill="none" xmlns="http://www.w3.org/2000/svg"><g opacity=".5" clip-path="url(#clip0)" fill="#fff"><path d="M6.846 23.607a.823.823 0 0 1 .985-.806.82.82 0 0 1 .592 1.127.822.822 0 0 1-.766.5c-.5.06-.81-.31-.81-.821zm2.072-1.323h-.5v.38a1.101 1.101 0 0 0-.88-.44 1.39 1.39 0 0 0-1.274 1.388A1.395 1.395 0 0 0 7.537 25a.94.94 0 0 0 .82-.38v.31h.561v-2.646zm19.409 1.323a.822.822 0 0 1 1.4-.582.822.822 0 0 1-.58 1.404c-.57.06-.82-.311-.82-.822zm2.081 0V21.21h-.57v1.453a1.001 1.001 0 0 0-.82-.44 1.35 1.35 0 0 0-1.322 1.383A1.314 1.314 0 0 0 29.027 25a.939.939 0 0 0 .821-.38v.31h.57l-.01-1.323zm-14.393-.822a.7.7 0 0 1 .7.631h-1.37a.702.702 0 0 1 .67-.631zm.07-.562a1.39 1.39 0 0 0-1.273 1.389A1.395 1.395 0 0 0 16.085 25a1.73 1.73 0 0 0 1.071-.38l-.25-.442a1.23 1.23 0 0 1-.76.25.69.69 0 0 1-.752-.63h2.002v-.191a1.344 1.344 0 0 0-1.29-1.384h-.02zm6.937 1.384a.822.822 0 0 1 1.4-.582.823.823 0 0 1-.58 1.404c-.56.06-.82-.311-.82-.822zm2.142 0v-1.323h-.57v.38a1.001 1.001 0 0 0-.822-.44 1.39 1.39 0 0 0-1.273 1.388A1.394 1.394 0 0 0 23.772 25a.94.94 0 0 0 .821-.38v.31h.57v-1.323zm-5.355 0a1.326 1.326 0 0 0 .84 1.304c.172.067.356.098.54.089a1.36 1.36 0 0 0 .952-.32l-.25-.442c-.205.15-.448.236-.701.25a.789.789 0 0 1-.82-.811.763.763 0 0 1 .82-.822 1 1 0 0 1 .7.25l.25-.44a1.061 1.061 0 0 0-.95-.442 1.35 1.35 0 0 0-1.431 1.384h.05zm7.366-1.384a.72.72 0 0 0-.69.381v-.32h-.57v2.646h.57v-1.444c0-.44.19-.701.57-.701a.7.7 0 0 1 .37.07l.19-.511a1.632 1.632 0 0 0-.49-.12h.05zm-15.304.311a1.789 1.789 0 0 0-1.07-.25c-.691 0-1.072.32-1.072.821 0 .502.31.692.88.752l.251.07c.32.06.44.12.44.251 0 .13-.19.31-.63.31a1.59 1.59 0 0 1-.88-.25l-.251.441c.328.237.728.35 1.131.321.76 0 1.201-.38 1.201-.882 0-.501-.32-.702-1-.762l-.251-.06c-.25-.07-.44-.07-.44-.25 0-.181.19-.322.5-.322.291.009.575.095.82.251l.371-.44zm7.367-.31a.719.719 0 0 0-.69.38v-.32h-.571v2.646h.57v-1.444c0-.44.19-.701.57-.701a.7.7 0 0 1 .371.07l.19-.572c-.24 0-.36-.06-.49-.06h.05zm-4.915.06h-.94v-.822h-.571v.822h-.5v.57h.5v1.204c0 .631.25 1.002.95 1.002.244.002.483-.064.692-.19l-.19-.512a.83.83 0 0 1-.501.13c-.32 0-.38-.19-.38-.44v-1.193h.94v-.572zM5.775 24.93v-1.634a1.004 1.004 0 0 0-1-1.073 1.21 1.21 0 0 0-.951.441 1.092 1.092 0 0 0-.881-.44.81.81 0 0 0-.75.38v-.32h-.581v2.646h.57v-1.444a.622.622 0 0 1 .63-.701c.371 0 .561.26.561.701v1.444h.57v-1.444a.622.622 0 0 1 .631-.701c.38 0 .57.26.57.701v1.444h.631zm6.447-14.906a10.037 10.037 0 0 1 3.793-7.879A9.902 9.902 0 0 0 .535 6.71a9.938 9.938 0 0 0 1.29 8.997 9.913 9.913 0 0 0 8.064 4.172 9.83 9.83 0 0 0 6.126-2.085 9.601 9.601 0 0 1-3.793-7.769zm19.808 0a9.884 9.884 0 0 1-1.494 5.272 9.847 9.847 0 0 1-14.52 2.486 9.81 9.81 0 0 0 3.773-7.828 9.807 9.807 0 0 0-3.774-7.809A10 10 0 0 1 22.111 0a10.093 10.093 0 0 1 6.994 2.993 10.122 10.122 0 0 1 2.925 7.031z"/><path d="M16.015 3.288a9.443 9.443 0 0 0-3.003 6.736 9.655 9.655 0 0 0 3.003 6.756 9.614 9.614 0 0 0 3.003-6.756 9.393 9.393 0 0 0-3.003-6.736z"/></g><defs><clipPath id="clip0"><path fill="#fff" d="M0 0h32v25H0z"/></clipPath></defs></svg>